<?xml version="1.0" encoding="utf-8"?>
<!-- Generator: Adobe Illustrator 27.5.0, SVG Export Plug-In . SVG Version: 6.00 Build 0)  -->
<svg version="1.1" id="Layer_1" xmlns="http://www.w3.org/2000/svg" xmlns:xlink="http://www.w3.org/1999/xlink" x="0px" y="0px"
	 viewBox="0 0 7000 4081" style="enable-background:new 0 0 7000 4081;" xml:space="preserve">
<g>
	<rect style="fill-rule:evenodd;clip-rule:evenodd;fill:#004790;" width="7000" height="4081"/>
	<g>
		<defs>
			<path id="SVGID_1_" d="M1447.196,2142.796C4540.045,4392.127,4875.368,3162.431,7000,743.526c0,0,0-425.543,0-394.938v-30.605
				c-128.723-21.651-261.014-29.38-395.843-32.922C3748.266,210.061,3736.801,3311.003,1447.196,2142.796"/>
		</defs>
		<clipPath id="SVGID_00000173878895493434259780000001469235498752436615_">
			<use xlink:href="#SVGID_1_"  style="overflow:visible;"/>
		</clipPath>
		
			<linearGradient id="SVGID_00000097472668585863097910000017888671768122094229_" gradientUnits="userSpaceOnUse" x1="748.9169" y1="-2053.249" x2="4137.6299" y2="2193.3613">
			<stop  offset="0" style="stop-color:#5EFAF7"/>
			<stop  offset="1" style="stop-color:#004790"/>
		</linearGradient>
		
			<rect x="1447.196" y="210.061" style="clip-path:url(#SVGID_00000173878895493434259780000001469235498752436615_);fill:url(#SVGID_00000097472668585863097910000017888671768122094229_);" width="5552.804" height="4182.066"/>
	</g>
	<g>
		<defs>
			<path id="SVGID_00000020375145540563558140000008577367609681717131_" d="M124.83,1662.264c-41.831,0-83.446,0.918-124.83,2.732
				V4081h2766.284h3589.601H7000V743.526c-943.666,986.69-898.186,2414.921-3072.702,2414.921
				C2105.07,3158.448,1941.807,1662.264,124.83,1662.264"/>
		</defs>
		<clipPath id="SVGID_00000005948141394947498960000014644078845149862843_">
			<use xlink:href="#SVGID_00000020375145540563558140000008577367609681717131_"  style="overflow:visible;"/>
		</clipPath>
		
			<linearGradient id="SVGID_00000021797607781390374930000017656943371660870024_" gradientUnits="userSpaceOnUse" x1="3234.646" y1="3877.4888" x2="3784.7786" y2="839.7797">
			<stop  offset="0" style="stop-color:#0067B0"/>
			<stop  offset="1" style="stop-color:#37DBD0"/>
		</linearGradient>
		
			<rect y="743.526" style="clip-path:url(#SVGID_00000005948141394947498960000014644078845149862843_);fill:url(#SVGID_00000021797607781390374930000017656943371660870024_);" width="7000" height="3337.474"/>
	</g>
	<g>
		<defs>
			<path id="SVGID_00000146477819455139259790000003697738080183120270_" d="M124.83,2212.504c-41.831,0-83.446,0.918-124.83,2.732
				V4081h2766.284h3589.601H7000V1293.766c-943.666,986.69-898.186,2414.921-3072.702,2414.921
				C2105.07,3708.688,1941.807,2212.504,124.83,2212.504"/>
		</defs>
		<clipPath id="SVGID_00000129924180852946438310000011293903193691753142_">
			<use xlink:href="#SVGID_00000146477819455139259790000003697738080183120270_"  style="overflow:visible;"/>
		</clipPath>
		
			<linearGradient id="SVGID_00000094586631710759392890000014844115601775606926_" gradientUnits="userSpaceOnUse" x1="3002.5579" y1="4543.9463" x2="3618.2788" y2="2245.9404">
			<stop  offset="0" style="stop-color:#0067B0"/>
			<stop  offset="1" style="stop-color:#37DBD0"/>
		</linearGradient>
		
			<rect y="1293.766" style="clip-path:url(#SVGID_00000129924180852946438310000011293903193691753142_);fill:url(#SVGID_00000094586631710759392890000014844115601775606926_);" width="7000" height="2787.234"/>
	</g>
	<g>
		<defs>
			<path id="SVGID_00000089556206400364147140000003731988536967567286_" d="M2965.448,2692.798
				c-256.303,0-502.28-44.222-730.712-125.45c433.117,314.992,909.767,591.099,1692.563,591.099
				c198.793,0,379.034-11.937,543.171-34.381C6101.767,2901.001,6142.603,1640.013,7000,743.526v-28.168
				c-118.466-19.926-240.175-30.298-364.306-30.298C4648.346,685.061,4954.027,2692.798,2965.448,2692.798"/>
		</defs>
		<clipPath id="SVGID_00000104691265258383595940000015984262474980137344_">
			<use xlink:href="#SVGID_00000089556206400364147140000003731988536967567286_"  style="overflow:visible;"/>
		</clipPath>
		
			<linearGradient id="SVGID_00000031920479614502140470000012983641940554191797_" gradientUnits="userSpaceOnUse" x1="1553.9626" y1="-1141.651" x2="5079.0796" y2="2383.4658">
			<stop  offset="0" style="stop-color:#5EFAF7"/>
			<stop  offset="1" style="stop-color:#004790"/>
		</linearGradient>
		
			<rect x="2234.736" y="685.061" style="clip-path:url(#SVGID_00000104691265258383595940000015984262474980137344_);fill:url(#SVGID_00000031920479614502140470000012983641940554191797_);" width="4765.265" height="2473.387"/>
	</g>
</g>
</svg>
