<?xml version="1.0" encoding="UTF-8"?>
<svg version="1.1" xmlns="http://www.w3.org/2000/svg" width="656" height="660">
<path d="M0 0 C3.90700731 3.04794296 7.57040813 6.32565461 11.20410156 9.69238281 C11.97625 10.39492187 12.74839844 11.09746094 13.54394531 11.82128906 C30.05324379 27.506707 40.62856531 51.72881817 41.54003906 74.38378906 C41.98189498 103.16997386 33.98972782 128.06998017 14.20410156 149.69238281 C0.8406711 163.40748249 -15.04628882 172.6675975 -33.79589844 176.69238281 C-33.4465625 177.77777344 -33.09722656 178.86316406 -32.73730469 179.98144531 C-32.27745429 181.42668943 -31.81783089 182.87200578 -31.35839844 184.31738281 C-31.01325195 185.38666016 -31.01325195 185.38666016 -30.66113281 186.47753906 C-28.10450055 194.55501492 -25.03814243 205.74666087 -28.77246094 213.79785156 C-30.95542339 216.50981412 -33.47703729 218.62178244 -36.79589844 219.69238281 C-38.11589844 219.69238281 -39.43589844 219.69238281 -40.79589844 219.69238281 C-40.79589844 230.91238281 -40.79589844 242.13238281 -40.79589844 253.69238281 C-32.21589844 253.36238281 -23.63589844 253.03238281 -14.79589844 252.69238281 C-14.58661743 245.76785823 -14.58661743 245.76785823 -14.40795898 238.8425293 C-14.10322586 230.78230113 -12.60442962 224.66687203 -6.79589844 218.69238281 C-1.70455951 215.1769345 3.22219778 214.99840378 9.20410156 215.69238281 C14.64928887 217.4725402 17.98636549 221.08064381 21.20410156 225.69238281 C22.21998134 228.74002216 22.40214562 231.03957248 22.52050781 234.23535156 C22.56240234 235.30849609 22.60429688 236.38164062 22.64746094 237.48730469 C22.68677734 238.60685547 22.72609375 239.72640625 22.76660156 240.87988281 C22.83137695 242.57661133 22.83137695 242.57661133 22.89746094 244.30761719 C23.00359255 247.10241635 23.10564541 249.89730443 23.20410156 252.69238281 C24.13569092 252.70172852 25.06728027 252.71107422 26.02709961 252.72070312 C29.54831598 252.76522852 33.06840849 252.82706281 36.58911133 252.89990234 C38.1007209 252.92779123 39.61246761 252.94916187 41.12426758 252.96337891 C57.63920004 253.12781567 70.54565447 256.37617171 82.89160156 267.87988281 C91.67834911 276.98922074 95.51854163 287.28749993 95.4715271 299.72953796 C95.47605821 300.61726656 95.48058933 301.50499516 95.48525774 302.41962463 C95.49787809 305.38258647 95.49628289 308.34536393 95.49462891 311.30834961 C95.5006157 313.43767024 95.5074216 315.5669887 95.51498413 317.69630432 C95.5326377 323.47338242 95.5373393 329.25040126 95.5386157 335.02750373 C95.54003843 338.63998831 95.54431037 342.25245788 95.54961014 345.86493874 C95.56810956 358.47694478 95.57628101 371.08890857 95.57470703 383.70092773 C95.57350624 395.44167342 95.59459667 407.18223509 95.62619436 418.92293423 C95.65238316 429.01490792 95.6630732 439.10682161 95.66179621 449.198829 C95.66128727 455.22090775 95.6669329 461.24282299 95.68815231 467.26486778 C95.70757797 472.93255746 95.7076294 478.59992842 95.69311905 484.26762962 C95.69103511 486.3411862 95.69570692 488.41476294 95.70783997 490.48828506 C95.8052556 508.2981213 93.17016897 522.33069807 80.70410156 535.87988281 C69.91266034 546.21557689 56.71048339 550.01440247 42.05326843 549.95307922 C41.06990928 549.95690477 40.08655013 549.96073032 39.07339221 549.96467179 C35.7987914 549.97493919 32.52436798 549.97102154 29.24975586 549.96704102 C26.89354287 549.97139097 24.5373313 549.97657507 22.18112183 549.98252869 C15.7946731 549.99589995 9.40828363 549.99649938 3.02182364 549.99396539 C-0.97158638 549.99316408 -4.96498719 549.99530851 -8.958395 549.99895287 C-9.95466197 549.99984565 -9.95466197 549.99984565 -10.97105553 550.00075647 C-12.32060995 550.0019683 -13.67016437 550.00318243 -15.01971879 550.00439885 C-27.66017964 550.01526129 -40.30061378 550.01311817 -52.94107612 550.007014 C-64.48488039 550.00184726 -76.02860022 550.01309615 -87.57238779 550.03211222 C-99.44690895 550.05152198 -111.32139021 550.05974105 -123.19592732 550.05598897 C-129.85397734 550.05408152 -136.51196593 550.05678706 -143.17000771 550.07070351 C-149.43356178 550.08330588 -155.69694724 550.08131478 -161.96049881 550.06829262 C-164.2533607 550.06593248 -166.54623454 550.06864123 -168.83908272 550.07691574 C-188.52195272 550.14280092 -204.42713012 548.58884723 -219.43652344 534.36816406 C-230.04422997 522.33790086 -233.28729302 508.59613726 -233.13647461 492.85546875 C-233.13691269 491.63452011 -233.13735077 490.41357147 -233.13780212 489.15562439 C-233.13608573 485.84836143 -233.12117284 482.54167936 -233.10008025 479.234519 C-233.08116469 475.76323642 -233.07955141 472.29194385 -233.07600403 468.82061768 C-233.06672682 462.26544874 -233.04217251 455.71043217 -233.01195556 449.15532994 C-232.97827581 441.68484055 -232.96189163 434.21434339 -232.94686925 426.74379683 C-232.91561837 411.39323764 -232.86294332 396.04282997 -232.79589844 380.69238281 C-237.19269315 380.74428351 -241.58752753 380.83937208 -245.98339844 380.94238281 C-247.22927734 380.9565625 -248.47515625 380.97074219 -249.75878906 380.98535156 C-251.56186523 381.03369141 -251.56186523 381.03369141 -253.40136719 381.08300781 C-254.50633545 381.10395508 -255.61130371 381.12490234 -256.74975586 381.14648438 C-260.4224123 381.8046602 -262.06863431 383.21136535 -264.79589844 385.69238281 C-267.22756095 386.90821407 -268.80747907 386.83312423 -271.52618408 386.85733032 C-272.52578659 386.8685643 -273.5253891 386.87979828 -274.55528259 386.89137268 C-275.65723465 386.89869919 -276.75918671 386.9060257 -277.89453125 386.91357422 C-279.0529805 386.92508011 -280.21142975 386.936586 -281.40498352 386.94844055 C-284.59944549 386.97895607 -287.79390434 387.00497432 -290.98842335 387.02863741 C-293.68154111 387.04914173 -296.37462908 387.07267222 -299.06772208 387.0961746 C-305.46682903 387.15194898 -311.86596288 387.20257108 -318.26513672 387.25 C-324.05458243 387.29298264 -329.84394821 387.34142291 -335.63330078 387.39550781 C-390.83176213 387.90924858 -390.83176213 387.90924858 -414.12792969 387.32128906 C-414.87867516 387.30396854 -415.62942062 387.28664803 -416.40291595 387.26880264 C-444.16661732 386.58927285 -468.92980345 378.53815998 -489.79589844 359.69238281 C-490.63765625 358.933125 -491.47941406 358.17386719 -492.34667969 357.39160156 C-511.53090454 339.16211263 -524.12649077 312.61430099 -524.99902344 286.01269531 C-525.41607595 258.39159929 -518.55400744 231.71314309 -499.79589844 210.69238281 C-498.80203125 209.48582031 -498.80203125 209.48582031 -497.78808594 208.25488281 C-483.7723743 191.70496501 -464.82883509 180.87271661 -443.94433594 175.53222656 C-440.95218042 175.01565461 -440.95218042 175.01565461 -439.79589844 173.69238281 C-439.56964038 172.235153 -439.39929781 170.76916635 -439.25292969 169.30175781 C-435.54587649 135.17549867 -422.94538873 106.09572861 -399.79589844 80.69238281 C-398.94511719 79.7578125 -398.09433594 78.82324219 -397.21777344 77.86035156 C-372.5686619 52.06734413 -336.23764182 34.95095048 -300.49829102 33.56445312 C-255.72324478 32.61291002 -216.99681603 43.30922882 -183.79589844 74.69238281 C-182.98507812 75.43875 -182.17425781 76.18511719 -181.33886719 76.95410156 C-170.47357056 87.30607709 -162.36918833 99.82429999 -154.79589844 112.69238281 C-154.9322168 111.86383789 -154.9322168 111.86383789 -155.07128906 111.01855469 C-160.10115106 79.88499861 -157.86288103 50.46474689 -139.79589844 23.69238281 C-124.87426374 3.16131878 -102.94735938 -11.9069578 -77.79589844 -16.30761719 C-76.39887695 -16.56454346 -76.39887695 -16.56454346 -74.97363281 -16.82666016 C-49.42147756 -20.69403461 -21.08993541 -15.35585835 0 0 Z " fill="#9ED4FE" transform="translate(525.7958984375,107.3076171875)"/>
<path d="M0 0 C5.40935061 3.81113338 8.29413198 7.79782995 10.75 13.9375 C10.75 21.5275 10.75 29.1175 10.75 36.9375 C46.06 36.6075 81.37 36.2775 117.75 35.9375 C118.08 28.6775 118.41 21.4175 118.75 13.9375 C123.11231884 3.75875604 123.11231884 3.75875604 128.375 0.125 C134.03303488 -1.86579005 139.30134741 -1.86302104 145 0 C149.41854291 3.11306432 153.02390999 6.75922996 154.75 11.9375 C154.89889747 13.78216442 154.9979101 15.63107275 155.06640625 17.48046875 C155.10830078 18.55361328 155.15019531 19.62675781 155.19335938 20.73242188 C155.23267578 21.85197266 155.27199219 22.97152344 155.3125 24.125 C155.35568359 25.25615234 155.39886719 26.38730469 155.44335938 27.55273438 C155.54949099 30.34753354 155.65154385 33.14242162 155.75 35.9375 C156.68158936 35.9468457 157.61317871 35.95619141 158.57299805 35.96582031 C162.09421442 36.0103457 165.61430692 36.07217999 169.13500977 36.14501953 C170.64661933 36.17290842 172.15836604 36.19427906 173.67016602 36.20849609 C190.18509848 36.37293286 203.09155291 39.6212889 215.4375 51.125 C224.22424755 60.23433793 228.06444007 70.53261712 228.01742554 82.97465515 C228.02195665 83.86238375 228.02648776 84.75011235 228.03115618 85.66474181 C228.04377653 88.62770365 228.04218132 91.59048112 228.04052734 94.5534668 C228.04651414 96.68278743 228.05332003 98.81210589 228.06088257 100.94142151 C228.07853614 106.71849961 228.08323773 112.49551845 228.08451414 118.27262092 C228.08593686 121.8851055 228.09020881 125.49757507 228.09550858 129.11005592 C228.11400799 141.72206197 228.12217945 154.33402576 228.12060547 166.94604492 C228.11940468 178.68679061 228.1404951 190.42735228 228.1720928 202.16805142 C228.1982816 212.26002511 228.20897164 222.35193879 228.20769465 232.44394618 C228.20718571 238.46602493 228.21283134 244.48794018 228.23405075 250.50998497 C228.25347641 256.17767465 228.25352784 261.84504561 228.23901749 267.51274681 C228.23693355 269.58630338 228.24160536 271.65988013 228.2537384 273.73340225 C228.35115404 291.54323848 225.71606741 305.57581526 213.25 319.125 C202.45855878 329.46069408 189.25638182 333.25951965 174.59916687 333.19819641 C173.61580772 333.20202196 172.63244856 333.20584751 171.61929065 333.20978898 C168.34468984 333.22005638 165.07026642 333.21613873 161.7956543 333.2121582 C159.43944131 333.21650816 157.08322974 333.22169226 154.72702026 333.22764587 C148.34057154 333.24101714 141.95418207 333.24161657 135.56772208 333.23908257 C131.57431205 333.23828127 127.58091125 333.24042569 123.58750343 333.24407005 C122.92332546 333.24466524 122.25914748 333.24526043 121.5748429 333.24587366 C120.22528848 333.24708549 118.87573407 333.24829962 117.52617965 333.24951603 C104.8857188 333.26037848 92.24528466 333.25823536 79.60482232 333.25213119 C68.06101804 333.24696445 56.51729822 333.25821334 44.97351065 333.27722941 C33.09898949 333.29663917 21.22450822 333.30485823 9.34997112 333.30110615 C2.6919211 333.2991987 -3.9660675 333.30190425 -10.62410927 333.31582069 C-16.88766334 333.32842307 -23.1510488 333.32643197 -29.41460037 333.31340981 C-31.70746226 333.31104967 -34.00033611 333.31375842 -36.29318428 333.32203293 C-55.97605428 333.38791811 -71.88123168 331.83396441 -86.890625 317.61328125 C-97.49833154 305.58301804 -100.74139458 291.84125445 -100.59057617 276.10058594 C-100.59123329 274.26916298 -100.59123329 274.26916298 -100.59190369 272.40074158 C-100.5901873 269.09347861 -100.57527441 265.78679655 -100.55418181 262.47963619 C-100.53526625 259.00835361 -100.53365298 255.53706104 -100.53010559 252.06573486 C-100.52082838 245.51056592 -100.49627407 238.95554936 -100.46605712 232.40044713 C-100.43237737 224.92995774 -100.41599319 217.45946058 -100.40097082 209.98891401 C-100.36971993 194.63835482 -100.31704488 179.28794716 -100.25 163.9375 C-101.24 163.6075 -102.23 163.2775 -103.25 162.9375 C-102.26 162.9375 -101.27 162.9375 -100.25 162.9375 C-100.26332367 161.38347221 -100.26332367 161.38347221 -100.2769165 159.79804993 C-100.35835787 149.98649326 -100.41813495 140.17500608 -100.45724869 130.36318684 C-100.47803419 125.32002374 -100.50618478 120.27713571 -100.55175781 115.23413086 C-100.59554035 110.35818504 -100.61920489 105.48250212 -100.62950897 100.60637474 C-100.63684262 98.75542252 -100.65116184 96.90448304 -100.67292023 95.05364418 C-100.86831498 77.72782635 -98.38345807 63.29168843 -86 50.1875 C-73.02008906 37.92267597 -59.0503287 36.45526177 -42 36.75 C-40.46485702 36.7650886 -38.92969954 36.77876955 -37.39453125 36.79101562 C-33.6793798 36.82365722 -29.96478667 36.87520353 -26.25 36.9375 C-26.2814209 35.95523438 -26.2814209 35.95523438 -26.31347656 34.953125 C-26.39730383 31.94807672 -26.44886895 28.94327536 -26.5 25.9375 C-26.53351563 24.90753906 -26.56703125 23.87757813 -26.6015625 22.81640625 C-26.69939663 15.1364267 -25.60922213 9.67233136 -20.3984375 3.87890625 C-19.81320312 3.42386719 -19.22796875 2.96882813 -18.625 2.5 C-18.03460938 2.02691406 -17.44421875 1.55382812 -16.8359375 1.06640625 C-11.91826103 -2.43410729 -5.52988281 -1.8078463 0 0 Z " fill="#5C6BF5" transform="translate(393.25,324.0625)"/>
<path d="M0 0 C3.90700731 3.04794296 7.57040813 6.32565461 11.20410156 9.69238281 C11.97625 10.39492187 12.74839844 11.09746094 13.54394531 11.82128906 C30.05324379 27.506707 40.62856531 51.72881817 41.54003906 74.38378906 C41.98189498 103.16997386 33.98972782 128.06998017 14.20410156 149.69238281 C0.8406711 163.40748249 -15.04628882 172.6675975 -33.79589844 176.69238281 C-33.4465625 177.77777344 -33.09722656 178.86316406 -32.73730469 179.98144531 C-32.27745429 181.42668943 -31.81783089 182.87200578 -31.35839844 184.31738281 C-31.01325195 185.38666016 -31.01325195 185.38666016 -30.66113281 186.47753906 C-28.10450055 194.55501492 -25.03814243 205.74666087 -28.77246094 213.79785156 C-30.96166177 216.51756426 -33.43978472 218.73349318 -36.79589844 219.69238281 C-41.50840453 220.14843179 -43.79951568 220.19057419 -48.04589844 218.06738281 C-53.67150441 213.20890492 -55.1258864 208.912886 -56.25292969 201.81347656 C-58.83021241 186.99873632 -65.0295411 175.0332727 -74.79589844 163.69238281 C-75.37726563 163.015625 -75.95863281 162.33886719 -76.55761719 161.64160156 C-89.2339868 147.95537441 -108.45245625 140.22268274 -126.89746094 139.40722656 C-135.94201616 139.18312956 -144.15964309 139.63266472 -152.93652344 142.00878906 C-158.77311524 143.40414912 -165.03695298 143.88975697 -170.60839844 141.31738281 C-176.75770813 137.12999574 -179.55198583 129.21969088 -182.67089844 122.75488281 C-195.54083829 96.71570218 -220.51458217 77.98063037 -247.47167969 68.38378906 C-278.73787893 57.89343615 -312.07679755 58.78380454 -341.85839844 73.44238281 C-370.33687509 88.00805155 -394.31931139 111.027216 -404.5625 142.01123047 C-408.3688338 154.43572583 -410.00395721 165.83400992 -410.22558594 178.83886719 C-410.42623282 185.5396369 -410.71101619 191.19147319 -415.33105469 196.43457031 C-419.78906345 199.74102182 -422.39603088 200.80358383 -427.91503906 201.48999023 C-443.39603955 203.51259562 -455.64768024 208.79762836 -467.79589844 218.69238281 C-468.74142578 219.39427734 -468.74142578 219.39427734 -469.70605469 220.11035156 C-483.65936282 230.9487982 -492.50243092 249.89881389 -495.34277344 266.98144531 C-498.11342171 289.67209928 -493.1272731 311.30268072 -479.25683594 329.56738281 C-466.49865221 345.76825104 -446.09021935 355.85339471 -425.79589844 358.69238281 C-420.58318864 358.97394721 -415.37829337 358.96321343 -410.16015625 358.94775391 C-408.60193194 358.95050869 -407.04370904 358.95419154 -405.48548889 358.95872498 C-402.14891915 358.96679283 -398.81241623 358.96901672 -395.47583771 358.9667778 C-390.19735805 358.96393015 -384.91901062 358.97834848 -379.64056396 358.99575806 C-364.63751169 359.04265367 -349.63447006 359.06673726 -334.63134766 359.07324219 C-326.33081502 359.0769928 -318.03043369 359.09501493 -309.72996593 359.12833655 C-304.48462918 359.14853488 -299.239683 359.15092964 -293.99432325 359.14005637 C-290.7326001 359.13744841 -287.4711044 359.15145594 -284.20944023 359.17013741 C-282.69938168 359.17545644 -281.18928117 359.17396746 -279.67923927 359.16510201 C-277.61441312 359.15395811 -275.55112199 359.16743477 -273.48638916 359.18685913 C-272.33238743 359.18794867 -271.1783857 359.1890382 -269.98941422 359.19016075 C-266.0568279 359.80861131 -263.89232807 361.23249292 -260.79589844 363.69238281 C-257.86642679 368.08659028 -257.32036623 371.46152852 -257.79589844 376.69238281 C-258.94588219 381.18777383 -261.03754584 383.061536 -264.79589844 385.69238281 C-267.22756095 386.90821407 -268.80747907 386.83312423 -271.52618408 386.85733032 C-272.52578659 386.8685643 -273.5253891 386.87979828 -274.55528259 386.89137268 C-275.65723465 386.89869919 -276.75918671 386.9060257 -277.89453125 386.91357422 C-279.0529805 386.92508011 -280.21142975 386.936586 -281.40498352 386.94844055 C-284.59944549 386.97895607 -287.79390434 387.00497432 -290.98842335 387.02863741 C-293.68154111 387.04914173 -296.37462908 387.07267222 -299.06772208 387.0961746 C-305.46682903 387.15194898 -311.86596288 387.20257108 -318.26513672 387.25 C-324.05458243 387.29298264 -329.84394821 387.34142291 -335.63330078 387.39550781 C-390.83176213 387.90924858 -390.83176213 387.90924858 -414.12792969 387.32128906 C-414.87867516 387.30396854 -415.62942062 387.28664803 -416.40291595 387.26880264 C-444.16661732 386.58927285 -468.92980345 378.53815998 -489.79589844 359.69238281 C-490.63765625 358.933125 -491.47941406 358.17386719 -492.34667969 357.39160156 C-511.53090454 339.16211263 -524.12649077 312.61430099 -524.99902344 286.01269531 C-525.41607595 258.39159929 -518.55400744 231.71314309 -499.79589844 210.69238281 C-498.80203125 209.48582031 -498.80203125 209.48582031 -497.78808594 208.25488281 C-483.7723743 191.70496501 -464.82883509 180.87271661 -443.94433594 175.53222656 C-440.95218042 175.01565461 -440.95218042 175.01565461 -439.79589844 173.69238281 C-439.56964038 172.235153 -439.39929781 170.76916635 -439.25292969 169.30175781 C-435.54587649 135.17549867 -422.94538873 106.09572861 -399.79589844 80.69238281 C-398.94511719 79.7578125 -398.09433594 78.82324219 -397.21777344 77.86035156 C-372.5686619 52.06734413 -336.23764182 34.95095048 -300.49829102 33.56445312 C-255.72324478 32.61291002 -216.99681603 43.30922882 -183.79589844 74.69238281 C-182.98507812 75.43875 -182.17425781 76.18511719 -181.33886719 76.95410156 C-170.47357056 87.30607709 -162.36918833 99.82429999 -154.79589844 112.69238281 C-154.9322168 111.86383789 -154.9322168 111.86383789 -155.07128906 111.01855469 C-160.10115106 79.88499861 -157.86288103 50.46474689 -139.79589844 23.69238281 C-124.87426374 3.16131878 -102.94735938 -11.9069578 -77.79589844 -16.30761719 C-76.39887695 -16.56454346 -76.39887695 -16.56454346 -74.97363281 -16.82666016 C-49.42147756 -20.69403461 -21.08993541 -15.35585835 0 0 Z " fill="#5389F6" transform="translate(525.7958984375,107.3076171875)"/>
<path d="M0 0 C90.09 0 180.18 0 273 0 C273.103125 24.21375 273.20625 48.4275 273.3125 73.375 C273.38078003 84.82840088 273.38078003 84.82840088 273.45043945 96.51318359 C273.47302246 105.86254883 273.47302246 105.86254883 273.47721863 110.24429321 C273.48186278 113.29404011 273.50054236 116.34334849 273.52787781 119.39297485 C273.56235911 123.29190057 273.57242221 127.19019534 273.56536138 131.08925939 C273.56683621 132.51460219 273.5766422 133.9399687 273.59607565 135.36517978 C273.7026203 143.56470682 273.50389881 151.42780809 268 158 C265.32643604 159.26280785 265.32643604 159.26280785 263 160 C263 160.66 263 161.32 263 162 C257.88898405 164.26064167 253.54266355 166.11826921 247.88127708 166.13701439 C246.65590943 166.1446262 246.65590943 166.1446262 245.40578687 166.15239179 C244.06777286 166.15313843 244.06777286 166.15313843 242.70272827 166.15390015 C241.75081498 166.1582824 240.79890168 166.16266465 239.81814253 166.1671797 C236.62013339 166.18056191 233.42215179 166.18674529 230.22412109 166.19287109 C227.9343656 166.20077252 225.64461134 166.2090415 223.3548584 166.21765137 C215.82773019 166.24386703 208.30059643 166.2591787 200.7734375 166.2734375 C198.18205385 166.27879739 195.59067023 166.2841749 192.99928665 166.28956985 C182.21958268 166.31119802 171.43988193 166.33008567 160.66016197 166.34119225 C157.86409882 166.34412178 155.06803571 166.34708346 152.27197266 166.35009766 C151.57705391 166.35084371 150.88213516 166.35158976 150.16615827 166.35235842 C138.91486827 166.36500565 127.66373652 166.39822188 116.41252045 166.43989949 C104.85231019 166.48236948 93.29220544 166.50548579 81.73191512 166.51111281 C75.2447909 166.51476554 68.75793502 166.52677927 62.27088547 166.55921555 C56.16574658 166.58930463 50.06103829 166.59560462 43.95584106 166.58383179 C41.71856709 166.58361113 39.48127309 166.59190982 37.24406815 166.60948563 C34.1819215 166.63222735 31.12132973 166.62385825 28.05917358 166.60800171 C27.18054858 166.6218838 26.30192357 166.63576588 25.39667356 166.65006864 C18.03667318 166.55661033 11.57741095 164.21570028 6.04710615 159.24456251 C-1.13950633 151.72137599 -0.28042198 142.50866296 -0.22705078 132.71118164 C-0.22643749 131.23852009 -0.22670615 129.76585796 -0.2277813 128.29319668 C-0.22823128 124.36322753 -0.21667206 120.43338114 -0.20256042 116.50344086 C-0.19113798 112.81051767 -0.19063242 109.11762376 -0.18920898 105.42468262 C-0.17873041 94.63727227 -0.15080796 83.84988457 -0.125 73.0625 C-0.08375 48.951875 -0.0425 24.84125 0 0 Z " fill="#6D7EF9" transform="translate(321,464)"/>
<path d="M0 0 C12.21009838 9.07930392 22.03528045 19.51438472 27.875 33.75 C28.46474609 35.18279297 28.46474609 35.18279297 29.06640625 36.64453125 C35.56966434 55.3838847 32.8925288 76.24723058 24.75 93.9375 C14.32593884 113.54624351 -2.53449571 124.69046741 -23.3125 131.18359375 C-26.15686675 131.75641761 -27.49853235 131.91731896 -30.125 130.75 C-31.828125 129.19140625 -31.828125 129.19140625 -33.375 127.3125 C-34.15617187 126.38630859 -34.15617187 126.38630859 -34.953125 125.44140625 C-36.125 123.75 -36.125 123.75 -36.125 121.75 C-37.02992188 121.3478125 -37.02992188 121.3478125 -37.953125 120.9375 C-40.16971277 119.72555273 -41.24920967 118.64979993 -42.875 116.75 C-59.36622554 99.83501706 -84.44270288 93.1951838 -107.125 90.75 C-107.60973678 89.06409158 -108.08748926 87.37617455 -108.5625 85.6875 C-108.96275391 84.27791016 -108.96275391 84.27791016 -109.37109375 82.83984375 C-113.92840086 64.1619685 -112.08283974 42.80924519 -103.125 25.75 C-100.66937416 21.89854473 -97.97763685 18.31441664 -95.125 14.75 C-94.59261719 14.04101562 -94.06023437 13.33203125 -93.51171875 12.6015625 C-71.72041511 -14.75923066 -28.28450613 -19.03256487 0 0 Z " fill="#7EB3FE" transform="translate(507.125,128.25)"/>
<path d="M0 0 C1.05692047 0.00424484 1.05692047 0.00424484 2.13519287 0.00857544 C4.3767626 0.01973449 6.61792686 0.04483057 8.859375 0.0703125 C10.38280671 0.08034786 11.90624471 0.08947274 13.4296875 0.09765625 C17.15638086 0.11965959 20.88283833 0.15415978 24.609375 0.1953125 C24.66270996 1.15300537 24.71604492 2.11069824 24.77099609 3.09741211 C24.84914551 4.35561768 24.92729492 5.61382324 25.0078125 6.91015625 C25.08177246 8.15659912 25.15573242 9.40304199 25.23193359 10.68725586 C25.88743797 16.77971532 27.98016027 21.1045333 32.546875 25.1953125 C37.68811197 28.47813697 43.77349664 28.00000191 49.609375 27.1953125 C54.56966656 24.93272337 56.95701119 21.91062593 59.609375 17.1953125 C60.99322206 11.65992427 61.17176414 5.88425373 61.609375 0.1953125 C97.249375 0.1953125 132.889375 0.1953125 169.609375 0.1953125 C169.939375 4.4853125 170.269375 8.7753125 170.609375 13.1953125 C172.31442335 19.65654834 174.30675325 22.4721951 179.609375 26.1953125 C183.83359189 28.30742095 189.02258317 27.69475041 193.609375 27.1953125 C198.18368007 25.57871974 200.84975181 23.3224953 203.546875 19.3203125 C204.89339077 15.48484733 204.94646717 11.46228352 205.17578125 7.4375 C205.21868286 6.74068115 205.26158447 6.0438623 205.30578613 5.32592773 C205.41055416 3.61593775 205.51045073 1.9056505 205.609375 0.1953125 C210.02008799 0.07079185 214.42984357 -0.01945277 218.84179688 -0.0793457 C220.33937423 -0.10433757 221.83683151 -0.13834377 223.33398438 -0.18188477 C239.41849591 -0.63761259 239.41849591 -0.63761259 245.609375 5.1953125 C256.63272711 16.50875283 251.609375 33.69630729 251.609375 48.1953125 C161.519375 48.1953125 71.429375 48.1953125 -21.390625 48.1953125 C-21.390625 11.4528531 -21.390625 11.4528531 -16.70703125 6.3671875 C-16.12824219 5.89796875 -15.54945313 5.42875 -14.953125 4.9453125 C-14.37691406 4.46578125 -13.80070312 3.98625 -13.20703125 3.4921875 C-8.73040316 0.29597132 -5.55254644 -0.04406783 0 0 Z " fill="#8DADFE" transform="translate(342.390625,387.8046875)"/>
<path d="M0 0 C4.83858548 2.32968931 7.67031069 5.16141452 10 10 C10.91548197 15.73577477 10.60268348 19.49980952 7.26327515 24.35180664 C4.98690054 27.32178949 2.33290098 29.8896957 -0.33984375 32.5 C-0.94381485 33.09876953 -1.54778595 33.69753906 -2.1700592 34.31445312 C-4.08780036 36.21450205 -6.01212375 38.10769089 -7.9375 40 C-9.85842856 41.893159 -11.77781206 43.78782075 -13.69422913 45.68554688 C-14.88235754 46.86157989 -16.07314763 48.03493232 -17.26707458 49.20507812 C-19.89171103 51.79839444 -22.39353405 54.40999508 -24.73266602 57.265625 C-26.95063756 59.94046954 -29.26862795 61.87559952 -32 64 C-32.33 64.66 -32.66 65.32 -33 66 C-33.66 66 -34.32 66 -35 66 C-35.26258102 66.5878981 -35.52516205 67.1757962 -35.79570007 67.7815094 C-37.06054799 70.11153794 -38.39157016 71.63288513 -40.26879883 73.49584961 C-40.93321487 74.16011459 -41.59763092 74.82437958 -42.28218079 75.5087738 C-42.99988144 76.21615189 -43.71758209 76.92352997 -44.45703125 77.65234375 C-45.19700851 78.38949112 -45.93698578 79.12663849 -46.6993866 79.88612366 C-49.06576801 82.24132151 -51.43899522 84.58948317 -53.8125 86.9375 C-55.39954755 88.51451216 -56.98614136 90.0919811 -58.57226562 91.66992188 C-62.12860726 95.20639215 -65.68903579 98.73867579 -69.25469971 102.26574707 C-70.80200218 103.80325546 -72.33587065 105.35286375 -73.86743164 106.90600586 C-77.52353367 110.49597577 -80.29079932 111.30379271 -85.375 111.375 C-86.29023438 111.40335938 -87.20546875 111.43171875 -88.1484375 111.4609375 C-96.04758156 110.18408956 -101.78164492 102.50742963 -107.140625 97.125 C-108.11345766 96.15351657 -109.08658687 95.18233003 -110.05999756 94.21142578 C-112.09046373 92.18389595 -114.11729927 90.15282399 -116.14160156 88.11914062 C-118.73284952 85.51646849 -121.3330152 82.92292012 -123.93594742 80.3319397 C-125.94358801 78.33153205 -127.94643358 76.32637813 -129.94786835 74.31976318 C-131.36881824 72.89683709 -132.79378533 71.47792628 -134.21881104 70.05908203 C-135.08020691 69.19138184 -135.94160278 68.32368164 -136.82910156 67.4296875 C-137.58821838 66.66897949 -138.34733521 65.90827148 -139.12945557 65.12451172 C-142.98678793 60.74346219 -143.44659109 57.16762131 -143.3125 51.46875 C-142.6802834 46.47423884 -139.97164099 43.87910375 -136.375 40.625 C-131.91152634 38.47592009 -127.86978591 37.99041024 -123 39 C-117.80911282 42.03339837 -113.9203133 45.89019613 -109.7734375 50.20703125 C-108.39885854 51.61174026 -107.02384585 53.01602494 -105.6484375 54.41992188 C-103.49926929 56.62511457 -101.35426666 58.83400029 -99.21679688 61.05053711 C-97.14248969 63.19706618 -95.05307146 65.32789418 -92.9609375 67.45703125 C-92.32231781 68.12773148 -91.68369812 68.7984317 -91.02572632 69.48945618 C-90.42475128 70.09726425 -89.82377625 70.70507233 -89.20458984 71.33129883 C-88.68085785 71.87216629 -88.15712585 72.41303375 -87.61752319 72.97029114 C-86.01854993 74.22759948 -86.01854993 74.22759948 -83.8890686 73.75151062 C-81.54741229 72.81995123 -80.68366468 71.7882128 -79.125 69.8125 C-75.75590848 65.78252059 -72.16289176 62.07077247 -68.4375 58.375 C-67.83881104 57.77969482 -67.24012207 57.18438965 -66.62329102 56.57104492 C-64.12086522 54.08645349 -61.61350832 51.60686383 -59.10644531 49.12695312 C-50.17064645 40.30666896 -50.17064645 40.30666896 -41.76269531 30.98974609 C-37.68913022 26.39146971 -33.23673478 22.13589781 -28.875 17.8125 C-27.88908623 16.83161806 -26.90340779 15.85049951 -25.91796875 14.86914062 C-24.10544559 13.06469432 -22.29134218 11.26189548 -20.47607422 9.46020508 C-18.76167021 7.75678867 -17.06101123 6.03946839 -15.37158203 4.3112793 C-10.44094617 -0.49398421 -6.62442005 -0.82676069 0 0 Z " fill="#97C6FE" transform="translate(528,487)"/>
<path d="M0 0 C4.65372642 2.8266712 8.38592327 6.07859606 12.203125 9.90234375 C13.0489212 10.74171227 13.0489212 10.74171227 13.9118042 11.59803772 C15.09412676 12.774651 16.27388328 13.95384792 17.45117188 15.13549805 C19.25007057 16.93757069 21.06193292 18.72586804 22.875 20.51367188 C24.02685163 21.66325151 25.17792084 22.81361576 26.328125 23.96484375 C26.86769836 24.49520737 27.40727173 25.02557098 27.9631958 25.57200623 C32.15935774 29.82033552 33.76188999 32.92504131 34.4375 38.8125 C34.29672971 43.76761408 32.19868724 47.30920703 29 51 C24.72359596 54.18244022 20.72231632 54.3720597 15.5625 54.49609375 C9.46656206 53.31593503 5.02548642 48.32332239 0.796875 44.0625 C0.23301086 43.50054932 -0.33085327 42.93859863 -0.9118042 42.35961914 C-2.09405122 41.17872504 -3.27380883 39.99533386 -4.45117188 38.80957031 C-6.25170712 36.99828269 -8.06272164 35.19796715 -9.875 33.3984375 C-11.02668381 32.24543272 -12.17774741 31.09180803 -13.328125 29.9375 C-13.86769836 29.4019751 -14.40727173 28.8664502 -14.9631958 28.31469727 C-19.16087842 24.06419557 -21.28152153 21.12631801 -21.375 15.125 C-21.26184682 10.31598983 -20.29862653 7.64585038 -17 4 C-11.4035474 -0.22589278 -6.91487792 -1.99816963 0 0 Z " fill="#5495F6" transform="translate(351,51)"/>
<path d="M0 0 C4.42484878 2.21242439 7.19476657 4.94799616 10 9 C11.54310155 13.62930465 11.67617323 17.44685059 9.7109375 21.9609375 C6.88509987 26.98034772 2.96022909 30.86266301 -1 35 C-1.64437012 35.68223633 -2.28874023 36.36447266 -2.95263672 37.06738281 C-5.14004968 39.37323691 -7.34842268 41.6572554 -9.5625 43.9375 C-10.27035645 44.68362549 -10.97821289 45.42975098 -11.70751953 46.19848633 C-16.79354499 51.36282175 -21.21476771 54.82377332 -28.7578125 55.1015625 C-34.45592737 53.95441726 -37.43580024 52.34363254 -40.94140625 47.65625 C-42.88354694 44.61762397 -43.27203239 42.47517408 -43.4375 38.875 C-43.49808594 37.96492188 -43.55867187 37.05484375 -43.62109375 36.1171875 C-41.87951729 27.37644525 -33.06008131 20.74927275 -26.94042969 14.6796875 C-25.36412451 13.11419914 -23.79891564 11.53817416 -22.234375 9.9609375 C-21.22720391 8.9550865 -20.2194134 7.94985527 -19.2109375 6.9453125 C-18.30649902 6.04312988 -17.40206055 5.14094727 -16.47021484 4.21142578 C-11.34011185 -0.3812282 -6.71417028 -0.86051866 0 0 Z " fill="#5D7FF8" transform="translate(594,51)"/>
<path d="M0 0 C5.10746982 5.40790922 5.574165 10.51814763 5.5234375 17.59375 C5.52630768 18.48106812 5.52917786 19.36838623 5.53213501 20.28259277 C5.53416933 22.15178061 5.52868385 24.02099004 5.51611328 25.89013672 C5.50005044 28.741047 5.51598332 31.59053973 5.53515625 34.44140625 C5.53317371 36.26302394 5.5293298 38.08464076 5.5234375 39.90625 C5.53254654 41.17680237 5.53254654 41.17680237 5.5418396 42.47302246 C5.46918429 48.62744549 4.36811602 52.94279495 -0.0625 57.5 C-4.34638098 60.16552594 -8.12110053 61.64998206 -13.21484375 60.91015625 C-18.85586655 59.3239119 -21.60141923 57.05807176 -24.875 52.25 C-26.00898582 49.98202836 -26.01854491 48.69049633 -26.05200195 46.17089844 C-26.06483719 45.32952332 -26.07767242 44.48814819 -26.09089661 43.62127686 C-26.09828354 42.70984924 -26.10567047 41.79842163 -26.11328125 40.859375 C-26.121353 39.922005 -26.12942474 38.98463501 -26.13774109 38.01885986 C-26.15158686 36.03163505 -26.16230681 34.04438641 -26.17016602 32.05712891 C-26.18735312 29.02590455 -26.23123164 25.9957781 -26.27539062 22.96484375 C-26.28551983 21.03386219 -26.29403522 19.10287135 -26.30078125 17.171875 C-26.31828934 16.26854431 -26.33579742 15.36521362 -26.35383606 14.43450928 C-26.33476177 8.86665439 -25.63355081 5.64085022 -21.875 1.25 C-14.49936433 -4.43538583 -8.0433051 -4.89592484 0 0 Z " fill="#5689F7" transform="translate(477.875,4.75)"/>
<path d="M0 0 C3.95515355 2.62494496 6.86575106 5.88961537 9.8828125 9.515625 C11.81160663 11.68059801 13.78247118 13.70679002 15.8515625 15.734375 C16.51929688 16.38873535 17.18703125 17.0430957 17.875 17.71728516 C19.22312136 19.03048608 20.57712091 20.337685 21.9375 21.63818359 C26.72444998 26.31400795 29.85366599 30.15955637 30.6171875 37.03125 C30.42252184 41.45777783 28.96976537 44.67980378 26.1796875 48.09375 C22.43326364 51.32929788 19.17868181 52.58859374 14.40234375 53.30859375 C7.94307859 52.68423596 3.51175413 49.02004026 -0.8671875 44.54296875 C-1.40506897 44.00654251 -1.94295044 43.47011627 -2.49713135 42.91743469 C-3.624517 41.78839914 -4.74700459 40.65445318 -5.86474609 39.51586914 C-7.56740875 37.78420322 -9.28801418 36.07202267 -11.01171875 34.36132812 C-12.11049181 33.25631772 -13.20818568 32.15023295 -14.3046875 31.04296875 C-14.81408875 30.53650314 -15.32348999 30.03003754 -15.84832764 29.50822449 C-20.28368076 24.95510083 -23.25690399 20.5086217 -23.1953125 14.03125 C-23.017931 8.65336534 -21.39334987 5.99224337 -18.0078125 1.90625 C-12.70377393 -2.48852481 -6.14275095 -3.05819361 0 0 Z " fill="#6277F9" transform="translate(574.8203125,271.90625)"/>
<path d="M0 0 C3.45324415 4.29039424 4.78538438 7.02018767 5.0625 12.5625 C3.24837622 18.40800997 0.46311433 22.77105245 -5.05541992 25.67822266 C-8.96496122 26.87774477 -12.60732399 26.8871495 -16.67578125 26.8984375 C-17.51537888 26.9050943 -18.3549765 26.9117511 -19.22001648 26.91860962 C-20.99260273 26.92871029 -22.7652268 26.93342744 -24.5378418 26.93310547 C-27.2309538 26.93746914 -29.92241298 26.97378822 -32.61523438 27.01171875 C-34.34374444 27.01758962 -36.07226223 27.0215572 -37.80078125 27.0234375 C-38.59688309 27.03780853 -39.39298492 27.05217957 -40.21321106 27.06698608 C-45.83007005 27.02175182 -50.29557565 25.82607719 -54.9375 22.5625 C-57.85617843 19.17544594 -59.1610851 15.97509967 -59.375 11.5 C-58.76867953 6.04311581 -57.46432279 2.94036447 -53.375 -0.75 C-49.21687325 -3.62870313 -45.9030392 -3.67694812 -40.96484375 -3.82421875 C-39.76922569 -3.86250542 -39.76922569 -3.86250542 -38.54945374 -3.90156555 C-36.85734658 -3.95363563 -35.16515613 -4.00305509 -33.47290039 -4.05004883 C-30.90915103 -4.12401472 -28.34637062 -4.21493119 -25.78320312 -4.30664062 C-24.13544733 -4.35521815 -22.48766108 -4.40277533 -20.83984375 -4.44921875 C-19.70493752 -4.49280769 -19.70493752 -4.49280769 -18.54710388 -4.53727722 C-11.84943831 -4.69196781 -5.28787623 -4.38781219 0 0 Z " fill="#607AF9" transform="translate(649.9375,175.4375)"/>
<path d="M0 0 C0.99 0.495 0.99 0.495 2 1 C1.5875 1.62003906 1.175 2.24007812 0.75 2.87890625 C-14.10316683 25.65597235 -21.08564338 48.46662184 -24.5703125 75.3046875 C-25 78 -25 78 -26 80 C-28.17000903 80.60796369 -30.36303076 81.13419039 -32.5625 81.625 C-57.81293343 87.77460853 -80.31129391 105.67755197 -94.125 127.25 C-108.88361724 151.9345108 -114.04794767 180.99119624 -107 209 C-105.78145886 212.9256139 -104.40253357 216.78364567 -102.89404297 220.60693359 C-100.90456847 225.71370541 -100.90456847 225.71370541 -102 229 C-114.28491637 201.97318398 -115.50707599 172.84089895 -105.57421875 144.83203125 C-101.09092169 133.49818536 -95.12186722 123.1015477 -87 114 C-86.33742188 113.195625 -85.67484375 112.39125 -84.9921875 111.5625 C-70.97647586 95.0125822 -52.03293665 84.1803338 -31.1484375 78.83984375 C-28.15628198 78.3232718 -28.15628198 78.3232718 -27 77 C-26.77374194 75.54277019 -26.60339937 74.07678354 -26.45703125 72.609375 C-23.57878375 46.11290602 -16.04291586 21.64449263 0 0 Z " fill="#3A8EF4" transform="translate(113,204)"/>
<path d="M0 0 C9.39380847 3.09777998 15.43849579 11.8225835 19.84375 20.26171875 C22.55294294 26.67774663 23.29347902 32.14229906 23.26742554 39.03715515 C23.27195665 39.92488375 23.27648776 40.81261235 23.28115618 41.72724181 C23.29377653 44.69020365 23.29218132 47.65298112 23.29052734 50.6159668 C23.29651414 52.74528743 23.30332003 54.87460589 23.31088257 57.00392151 C23.32853614 62.78099961 23.33323773 68.55801845 23.33451414 74.33512092 C23.33593686 77.9476055 23.34020881 81.56007507 23.34550858 85.17255592 C23.36400799 97.78456197 23.37217945 110.39652576 23.37060547 123.00854492 C23.36940468 134.74929061 23.3904951 146.48985228 23.4220928 158.23055142 C23.4482816 168.32252511 23.45897164 178.41443879 23.45769465 188.50644618 C23.45718571 194.52852493 23.46283134 200.55044018 23.48405075 206.57248497 C23.50347641 212.24017465 23.50352784 217.90754561 23.48901749 223.57524681 C23.48693355 225.64880338 23.49160536 227.72238013 23.5037384 229.79590225 C23.60115404 247.60573848 20.96606741 261.63831526 8.5 275.1875 C0.65065633 282.69350887 -8.98746737 287.81012875 -20 288 C-16.68731769 286.23109197 -13.28504959 285.00653421 -9.75 283.75 C-4.02295411 281.56704529 0.43950901 279.06952904 5 275 C5.86625 274.236875 6.7325 273.47375 7.625 272.6875 C17.61181255 261.38663317 21.16302121 249.17281967 21.13371277 234.28433228 C21.1371111 233.00469229 21.1371111 233.00469229 21.14057809 231.69920099 C21.14688514 228.8536526 21.14609085 226.00815224 21.14526367 223.16259766 C21.14825719 221.11708007 21.15166017 219.07156304 21.15544128 217.02604675 C21.16426518 211.47851021 21.1666187 205.9309891 21.16725707 200.38344622 C21.16796841 196.91571804 21.17010431 193.44799377 21.17275429 189.98026657 C21.1820019 177.87746685 21.18608985 165.77467814 21.18530273 153.671875 C21.18470188 142.3980531 21.19525675 131.12427903 21.2110464 119.85046923 C21.22412897 110.16364111 21.22948634 100.47682862 21.22884732 90.78999174 C21.22859258 85.00783122 21.23143106 79.22571325 21.24202538 73.44356155 C21.25171855 68.00495337 21.25177713 62.5664283 21.24450874 57.12781715 C21.24346447 55.1352444 21.24581643 53.14266645 21.2518692 51.15010262 C21.2596143 48.42318303 21.25492772 45.69654868 21.24723816 42.96963501 C21.25238172 42.18741723 21.25752529 41.40519944 21.26282471 40.59927809 C21.1860536 28.21866027 17.2311443 16.87073432 8.375 8 C6.92538221 6.65719616 5.46741017 5.32333717 4 4 C2.65977619 2.67359293 1.32431448 1.34229159 0 0 Z " fill="#4F34F3" transform="translate(598,368)"/>
<path d="M0 0 C-0.54825439 0.23074219 -1.09650879 0.46148437 -1.66137695 0.69921875 C-16.06045209 6.80791661 -16.06045209 6.80791661 -29.00390625 15.46875 C-31 17 -31 17 -34 18 C-34 18.66 -34 19.32 -34 20 C-34.94875 20.763125 -35.8975 21.52625 -36.875 22.3125 C-53.3313649 36.10925037 -63.42359704 59.65692302 -65.71875 80.578125 C-66.69798444 93.84800703 -67.54215176 107.80862211 -63.55859375 120.64453125 C-62.95592192 123.1858677 -63.14239484 124.56349263 -64 127 C-67.5305963 125.56825279 -69.00265172 123.95614954 -71.015625 120.75390625 C-71.54414063 119.91666016 -72.07265625 119.07941406 -72.6171875 118.21679688 C-73.42542969 116.90291992 -73.42542969 116.90291992 -74.25 115.5625 C-74.80429687 114.69044922 -75.35859375 113.81839844 -75.9296875 112.91992188 C-80 106.39839901 -80 106.39839901 -80 103 C-74.91764652 109.78507088 -70.21407102 116.6413381 -66 124 C-66.09087891 123.44763672 -66.18175781 122.89527344 -66.27539062 122.32617188 C-71.30525263 91.1926158 -69.06698259 61.77236408 -51 35 C-42.0616555 22.70150006 -17.0801764 -5.22154303 0 0 Z " fill="#336DF2" transform="translate(437,96)"/>
<path d="M0 0 C0 0.66 0 1.32 0 2 C-0.56847656 2.29132813 -1.13695312 2.58265625 -1.72265625 2.8828125 C-12.63597517 8.67652772 -21.7122786 16.83924024 -26 28.8125 C-26.97844485 32.26802041 -27.17557737 35.40066393 -27 39 C-27.33 39.66 -27.66 40.32 -28 41 C-28.15344209 42.88472859 -28.24959571 44.77427874 -28.31640625 46.6640625 C-28.35830078 47.78554688 -28.40019531 48.90703125 -28.44335938 50.0625 C-28.50233398 51.8259375 -28.50233398 51.8259375 -28.5625 53.625 C-28.60568359 54.80835938 -28.64886719 55.99171875 -28.69335938 57.2109375 C-28.79967426 60.14050328 -28.90170642 63.07015588 -29 66 C-28.34 66.33 -27.68 66.66 -27 67 C-27.495 67.495 -27.495 67.495 -28 68 C-28.23653523 70.52596259 -28.42173692 73.03107207 -28.5625 75.5625 C-28.60568359 76.27341797 -28.64886719 76.98433594 -28.69335938 77.71679688 C-28.79971777 79.47761912 -28.90038846 81.2387832 -29 83 C-28.34 83.33 -27.68 83.66 -27 84 C-27.66 84 -28.32 84 -29 84 C-28.96447021 85.09989258 -28.92894043 86.19978516 -28.89233398 87.33300781 C-28.76185646 91.4179689 -28.63873488 95.50312444 -28.51782227 99.58837891 C-28.46448835 101.35569314 -28.4091659 103.12294855 -28.35180664 104.89013672 C-28.269655 107.43183712 -28.19468212 109.97366403 -28.12109375 112.515625 C-28.09405869 113.30430969 -28.06702362 114.09299438 -28.03916931 114.90557861 C-27.94238154 118.47181166 -28.02832003 121.57166067 -29 125 C-30.65 124.67 -32.3 124.34 -34 124 C-32.515 123.505 -32.515 123.505 -31 123 C-31.01332367 121.44597221 -31.01332367 121.44597221 -31.0269165 119.86054993 C-31.10835787 110.04899326 -31.16813495 100.23750608 -31.20724869 90.42568684 C-31.22803419 85.38252374 -31.25618478 80.33963571 -31.30175781 75.29663086 C-31.34554035 70.42068504 -31.36920489 65.54500212 -31.37950897 60.66887474 C-31.38684262 58.81792252 -31.40116184 56.96698304 -31.42292023 55.11614418 C-31.61831498 37.79032635 -29.13345807 23.35418843 -16.75 10.25 C-6.02664298 0 -6.02664298 0 0 0 Z " fill="#4D7CF6" transform="translate(324,364)"/>
<path d="M0 0 C-0.66 0 -1.32 0 -2 0 C-2 0.66 -2 1.32 -2 2 C-4.97 2.66 -7.94 3.32 -11 4 C-11 4.66 -11 5.32 -11 6 C-16.75 8 -16.75 8 -19 8 C-19 8.66 -19 9.32 -19 10 C-20.64333504 11.03789581 -22.31243867 12.03567924 -24 13 C-24.66 13.66 -25.32 14.32 -26 15 C-26.99 15 -27.98 15 -29 15 C-32.71329163 16.02657497 -32.71329163 16.02657497 -35.0625 18.875 C-35.371875 19.57625 -35.68125 20.2775 -36 21 C-38.68862524 24.0594701 -41.49266315 25.96943656 -45 28 C-45.66 28.66 -46.32 29.32 -47 30 C-47.61359375 30.28875 -48.2271875 30.5775 -48.859375 30.875 C-56.76960656 35.03220199 -62.67542284 44.05048376 -68 51 C-68 43.79661553 -58.42208407 36.17119552 -53.4375 31.0625 C-42.17470981 19.85070562 -29.09286287 11.22642901 -15 4 C-13.90816406 3.43925781 -12.81632812 2.87851563 -11.69140625 2.30078125 C-3.97392976 -1.44009381 -3.97392976 -1.44009381 0 0 Z " fill="#4395F5" transform="translate(184,152)"/>
<path d="M0 0 C-0.99 0.36351562 -1.98 0.72703125 -3 1.1015625 C-12.67414001 4.73848241 -12.67414001 4.73848241 -21.19140625 10.5078125 C-23 12 -23 12 -25.87109375 13.85546875 C-36.69138379 21.2716226 -46.86008493 33.04785035 -50 46 C-50.74468695 47.68364007 -51.48939437 49.36727111 -52.234375 51.05078125 C-53.50650454 54.28951921 -54.22705601 57.61093788 -55 61 C-55.33 61 -55.66 61 -56 61 C-56.28803157 55.65770025 -55.45005615 51.55616952 -53.375 46.6875 C-53.10067139 46.03088379 -52.82634277 45.37426758 -52.54370117 44.69775391 C-43.43429046 23.42071726 -27.91623869 9.3579976 -7 0 C-3.86650268 -1.04449911 -3.01031744 -0.93423645 0 0 Z " fill="#B6E8FD" transform="translate(87,312)"/>
<path d="M0 0 C2 1 2 1 2.8515625 2.92578125 C3.10679687 3.71339844 3.36203125 4.50101563 3.625 5.3125 C3.88539063 6.09238281 4.14578125 6.87226563 4.4140625 7.67578125 C5 10 5 10 5 14 C5.99 14.33 6.98 14.66 8 15 C7.34 15 6.68 15 6 15 C6 15.99 6 16.98 6 18 C6.66 18.33 7.32 18.66 8 19 C8.55453952 34.81464553 6.1311843 47.82613316 -0.875 62.125 C-1.38353516 63.19814453 -1.38353516 63.19814453 -1.90234375 64.29296875 C-3.7675653 68.08724073 -5.21326644 70.80946803 -9 73 C-7.85114706 70.66248238 -6.65557544 68.36459607 -5.4140625 66.07421875 C5.15493815 46.06696205 7.48042969 24.47356113 0.875 2.65625 C0.58625 1.7796875 0.2975 0.903125 0 0 Z " fill="#546FF6" transform="translate(534,160)"/>
<path d="M0 0 C0.87885361 -0.00095673 1.75770721 -0.00191345 2.66319275 -0.00289917 C4.52001009 -0.00357942 6.37682981 -0.0017359 8.23364258 0.00244141 C11.08224804 0.00779822 13.93069628 0.00248792 16.77929688 -0.00390625 C18.5820316 -0.00324557 20.38476623 -0.00196461 22.1875 0 C23.47032616 -0.00303635 23.47032616 -0.00303635 24.77906799 -0.00613403 C30.79741757 0.01784941 30.79741757 0.01784941 33.02734375 1.1328125 C34.47582957 1.21623409 35.92805244 1.24014111 37.37890625 1.23046875 C38.2296875 1.22724609 39.08046875 1.22402344 39.95703125 1.22070312 C40.84648437 1.21232422 41.7359375 1.20394531 42.65234375 1.1953125 C43.998125 1.18854492 43.998125 1.18854492 45.37109375 1.18164062 C47.58991023 1.16983841 49.80859393 1.15337405 52.02734375 1.1328125 C51.69734375 1.7928125 51.36734375 2.4528125 51.02734375 3.1328125 C29.90734375 3.1328125 8.78734375 3.1328125 -12.97265625 3.1328125 C-10.69745579 -1.41758842 -4.43931053 -0.01053242 0 0 Z " fill="#99C3FE" transform="translate(416.97265625,357.8671875)"/>
<path d="M0 0 C0.33 0 0.66 0 1 0 C2.20263656 7.49990675 2.11258251 14.9182785 2.0625 22.5 C2.05798828 23.799375 2.05347656 25.09875 2.04882812 26.4375 C2.0371092 29.62504825 2.02070219 32.81249955 2 36 C-0.98852699 37.4942635 -4.02340206 37.08115401 -7.29541016 37.02172852 C-8.04672714 37.01212097 -8.79804413 37.00251343 -9.5721283 36.99261475 C-12.06120016 36.95957306 -14.55009932 36.91926053 -17.0390625 36.87890625 C-18.76255683 36.85461018 -20.48605759 36.83076637 -22.20956421 36.80735779 C-26.75031854 36.74446579 -31.29095931 36.67541366 -35.831604 36.60510254 C-40.46320414 36.53446525 -45.09488492 36.46962075 -49.7265625 36.40429688 C-58.81779695 36.27521862 -67.90892201 36.13963611 -77 36 C-77 35.67 -77 35.34 -77 35 C-51.59 35 -26.18 35 0 35 C0 23.45 0 11.9 0 0 Z " fill="#5A52F2" transform="translate(594,402)"/>
<path d="M0 0 C4.41247987 -0.11544279 8.81962906 -0.21475387 13.23242188 -0.2746582 C14.72999923 -0.29965007 16.22745651 -0.33365627 17.72460938 -0.37719727 C33.04478067 -0.81126879 33.04478067 -0.81126879 40 5 C37 5 37 5 34.75317383 4.02587891 C31.38208225 2.76975345 28.54317781 2.67769816 24.94921875 2.5859375 C23.96100883 2.55688828 23.96100883 2.55688828 22.95283508 2.5272522 C20.86451857 2.46784059 18.77614576 2.42122709 16.6875 2.375 C15.26495095 2.33678468 13.84242416 2.29773091 12.41992188 2.2578125 C8.94681926 2.16217204 5.47354868 2.07800027 2 2 C2.02320313 2.83144531 2.04640625 3.66289062 2.0703125 4.51953125 C2.08835937 5.60621094 2.10640625 6.69289063 2.125 7.8125 C2.14820313 8.89144531 2.17140625 9.97039062 2.1953125 11.08203125 C2 14 2 14 0 17 C0 11.39 0 5.78 0 0 Z " fill="#A4ADFD" transform="translate(548,388)"/>
<path d="M0 0 C0.66 0 1.32 0 2 0 C1.9278125 0.65742188 1.855625 1.31484375 1.78125 1.9921875 C1.30478827 6.87592023 0.95519124 11.68615417 1.07421875 16.59375 C1.09097656 17.38410645 1.10773438 18.17446289 1.125 18.98876953 C1.16596518 20.55280727 1.22395495 22.11651246 1.30078125 23.67919922 C1.46964525 30.53176048 -0.94029582 33.81500225 -5.6328125 38.79296875 C-9.59944235 41.9121028 -13.98905513 42.00712845 -18.875 42.3125 C-19.75414063 42.38533203 -20.63328125 42.45816406 -21.5390625 42.53320312 C-23.69118253 42.70864769 -25.84547588 42.85707612 -28 43 C-25.23216206 40.23216206 -23.10781749 40.52380392 -19.25 40.125 C-12.34993581 39.22099978 -8.88093677 38.17896471 -4.1875 33 C-1.99423571 29.30608119 -1.8516374 25.69992266 -1.71875 21.46484375 C-1.68136719 20.40845703 -1.64398438 19.35207031 -1.60546875 18.26367188 C-1.53503251 16.04232163 -1.46472045 13.82096744 -1.39453125 11.59960938 C-1.35714844 10.54451172 -1.31976563 9.48941406 -1.28125 8.40234375 C-1.25095703 7.43804443 -1.22066406 6.47374512 -1.18945312 5.48022461 C-1 3 -1 3 0 0 Z " fill="#B9E9FD" transform="translate(116,268)"/>
<path d="M0 0 C4.53678842 4.01829831 7.45777295 8.4936444 10 14 C10 14.66 10 15.32 10 16 C10.66 16.33 11.32 16.66 12 17 C12.72640955 19.31543043 13.38431458 21.65269935 14 24 C14.391875 25.093125 14.78375 26.18625 15.1875 27.3125 C16 30 16 30 15 32 C15.66 32.33 16.32 32.66 17 33 C17.4140625 35.72265625 17.4140625 35.72265625 17.625 39.0625 C17.69976562 40.16722656 17.77453125 41.27195312 17.8515625 42.41015625 C17.90054687 43.26480469 17.94953125 44.11945313 18 45 C15.11053182 42.59602512 14.55382385 40.86966864 14.0625 37.1875 C12.28745971 26.33685047 9.51272765 16.95125904 3.5859375 7.62109375 C2.08100687 5.13388081 0.9954329 2.72512075 0 0 Z " fill="#546CF5" transform="translate(456,275)"/>
<path d="M0 0 C0.66 0.66 1.32 1.32 2 2 C1.443125 2.61875 0.88625 3.2375 0.3125 3.875 C-2.74162006 8.00218926 -4.85057378 12.34942326 -7 17 C-7.63808594 18.38058594 -7.63808594 18.38058594 -8.2890625 19.7890625 C-11.74829411 27.66252831 -13.96365108 35.67258432 -16 44 C-16.33 44 -16.66 44 -17 44 C-16.63649746 29.9555838 -10.18411255 10.18411255 0 0 Z " fill="#B7E9FD" transform="translate(134,223)"/>
<path d="M0 0 C1.13953125 -0.01224609 2.2790625 -0.02449219 3.453125 -0.03710938 C4.53851563 -0.03904297 5.62390625 -0.04097656 6.7421875 -0.04296875 C8.22114502 -0.04913208 8.22114502 -0.04913208 9.72998047 -0.05541992 C12.125 0.1875 12.125 0.1875 14.125 2.1875 C12.87847656 2.16429687 11.63195312 2.14109375 10.34765625 2.1171875 C-7.67956158 1.15769051 -7.67956158 1.15769051 -24.875 5.1875 C-25.865 4.5275 -26.855 3.8675 -27.875 3.1875 C-18.59730479 0.28822025 -9.67233965 0.00558449 0 0 Z " fill="#AFE3FD" transform="translate(237.875,167.8125)"/>
<path d="M0 0 C-0.66 0 -1.32 0 -2 0 C-2 0.66 -2 1.32 -2 2 C-4.97 2.66 -7.94 3.32 -11 4 C-11 4.66 -11 5.32 -11 6 C-16.75 8 -16.75 8 -19 8 C-19 8.66 -19 9.32 -19 10 C-20.64333504 11.03789581 -22.31243867 12.03567924 -24 13 C-24.66 13.66 -25.32 14.32 -26 15 C-26 13.33333333 -26 11.66666667 -26 10 C-22.89779023 8.35045833 -19.79290789 6.7060119 -16.6875 5.0625 C-15.80642578 4.59392578 -14.92535156 4.12535156 -14.01757812 3.64257812 C-13.17001953 3.19462891 -12.32246094 2.74667969 -11.44921875 2.28515625 C-10.27879028 1.66459351 -10.27879028 1.66459351 -9.0847168 1.03149414 C-5.58578444 -0.69973776 -3.69808224 -1.14768069 0 0 Z " fill="#4D9BF8" transform="translate(184,152)"/>
<path d="M0 0 C0.66 0.33 1.32 0.66 2 1 C-0.65316051 3.66295077 -3.31620713 6.31340113 -6.0078125 8.9375 C-7.04692091 9.9582866 -8.08598295 10.97912041 -9.125 12 C-9.64964844 12.50789062 -10.17429688 13.01578125 -10.71484375 13.5390625 C-13.07449984 15.86884953 -14.92353609 17.86997441 -16.6171875 20.75 C-18.15720794 23.25579598 -19.28981098 23.97199727 -22 25 C-18.65559006 19.41187199 -14.825586 14.4766516 -10.4375 9.6875 C-9.97883545 9.18444336 -9.5201709 8.68138672 -9.04760742 8.16308594 C-6.2318379 5.14118616 -3.28480889 2.50073154 0 0 Z " fill="#B4E7FD" transform="translate(157,197)"/>
<path d="M0 0 C0.66 0.33 1.32 0.66 2 1 C2.125 8.75 2.125 8.75 1 11 C1.06430911 13.14850879 1.20135164 15.29505468 1.375 17.4375 C1.47425781 18.68660156 1.57351562 19.93570312 1.67578125 21.22265625 C2.09873158 26.15028238 2.5277772 31.07682614 3 36 C-1.55034992 29.17447512 -1.17949406 20.5244056 -1.1875 12.5625 C-1.18830566 11.78124756 -1.18911133 10.99999512 -1.18994141 10.19506836 C-1.15523556 6.63540556 -0.95594812 3.42472585 0 0 Z " fill="#B6E7FD" transform="translate(30,374)"/>
<path d="M0 0 C0.66 0.99 1.32 1.98 2 3 C4.94468421 3.19710868 7.68942642 3.23302911 10.625 3.125 C16.5522643 2.95899754 22.1263453 3.12634427 28 4 C28 4.33 28 4.66 28 5 C16.78 5 5.56 5 -6 5 C-5.01 4.34 -4.02 3.68 -3 3 C-2.67 2.34 -2.34 1.68 -2 1 C-1.34 0.67 -0.68 0.34 0 0 Z " fill="#7A6FF7" transform="translate(545,625)"/>
<path d="M0 0 C0.66 0.33 1.32 0.66 2 1 C1.46632813 1.40089844 0.93265625 1.80179687 0.3828125 2.21484375 C-4.85404235 6.21043716 -9.79311583 10.42732714 -14.640625 14.88671875 C-17.02464213 17.02207184 -19.48353424 19.0234143 -22 21 C-17.41232042 11.15062155 -8.80733825 5.72145883 0 0 Z " fill="#8BC9FE" transform="translate(432,126)"/>
<path d="M0 0 C0.66 0.66 1.32 1.32 2 2 C1.38125 2.2475 0.7625 2.495 0.125 2.75 C-2.41861325 4.24624309 -2.8926522 5.31072677 -4 8 C-4.33950684 8.59200195 -4.67901367 9.18400391 -5.02880859 9.79394531 C-6.19680323 12.44703721 -6.31762272 14.52868162 -6.4140625 17.421875 C-6.45273437 18.44667969 -6.49140625 19.47148437 -6.53125 20.52734375 C-6.57765625 22.12255859 -6.57765625 22.12255859 -6.625 23.75 C-6.66367187 24.82894531 -6.70234375 25.90789062 -6.7421875 27.01953125 C-6.83634631 29.67951775 -6.92197387 32.3394994 -7 35 C-7.33 35 -7.66 35 -8 35 C-8.11662261 30.95857785 -8.1873935 26.91759135 -8.25 22.875 C-8.28351563 21.73289062 -8.31703125 20.59078125 -8.3515625 19.4140625 C-8.44899182 11.03514104 -7.48476786 7.67836608 -1.75 1.625 C-1.1725 1.08875 -0.595 0.5525 0 0 Z " fill="#456FF5" transform="translate(376,325)"/>
<path d="M0 0 C3.02952396 1.51476198 3.37093771 3.85368016 4.625 6.9375 C5.07101563 8.01902344 5.51703125 9.10054688 5.9765625 10.21484375 C7 13 7 13 7 15 C7.66 15 8.32 15 9 15 C9.268125 15.7425 9.53625 16.485 9.8125 17.25 C10.94229421 19.86636554 12.20893202 21.80187111 14 24 C13.67 24.66 13.34 25.32 13 26 C6.72140382 18.43006134 1.24861657 9.90079492 0 0 Z " fill="#ACE1FD" transform="translate(33,411)"/>
<path d="M0 0 C-0.82242188 0.37511719 -1.64484375 0.75023437 -2.4921875 1.13671875 C-8.77315796 4.01610128 -14.98128948 6.9539798 -21.07421875 10.21484375 C-22.02748047 10.60349609 -22.02748047 10.60349609 -23 11 C-23.66 10.67 -24.32 10.34 -25 10 C-6.23773585 -2.07924528 -6.23773585 -2.07924528 0 0 Z " fill="#B6EAFD" transform="translate(198,176)"/>
<path d="M0 0 C2.01078066 3.50575238 2.79280998 6.99930785 3.625 10.9375 C3.88539063 12.14277344 4.14578125 13.34804687 4.4140625 14.58984375 C4.91307139 17.49407549 5.12243178 20.06720235 5 23 C2.35869909 20.35869909 2.17598812 18.19121892 1.375 14.5625 C1.11460937 13.40878906 0.85421875 12.25507813 0.5859375 11.06640625 C0 8 0 8 0 5 C-0.99 4.67 -1.98 4.34 -3 4 C-2.01 2.68 -1.02 1.36 0 0 Z " fill="#4B78F5" transform="translate(395,197)"/>
<path d="M0 0 C0.66 0.33 1.32 0.66 2 1 C-8.00455581 12.11161731 -8.00455581 12.11161731 -16 13 C-13.17872611 10.02125966 -10.26855585 7.67451397 -6.875 5.375 C-4.36842501 3.67171908 -2.14353028 2.14353028 0 0 Z " fill="#546CF6" transform="translate(516,241)"/>
<path d="M0 0 C8.45480379 3.04610681 14.49525118 9.08377712 20 16 C15.3769004 14.0293239 12.22921173 10.6130588 8.6328125 7.19140625 C5.89907645 4.91599687 3.2296117 3.46415341 0 2 C0 1.34 0 0.68 0 0 Z " fill="#4F6DF5" transform="translate(449,234)"/>
<path d="M0 0 C0.66 0 1.32 0 2 0 C0.903023 5.4590738 -0.509301 10.65556348 -2.3359375 15.9140625 C-3.18314664 18.57529592 -3.64530583 21.23338549 -4 24 C-4.33 24 -4.66 24 -5 24 C-5.59444874 16.42077855 -3.42833336 10.12896261 -1 3 C-0.67 2.01 -0.34 1.02 0 0 Z " fill="#8ECBFD" transform="translate(402,158)"/>
<path d="M0 0 C-0.33 0.66 -0.66 1.32 -1 2 C-3.22485352 2.41064453 -3.22485352 2.41064453 -6.12890625 2.6328125 C-7.68061523 2.75849609 -7.68061523 2.75849609 -9.26367188 2.88671875 C-10.8965918 3.00466797 -10.8965918 3.00466797 -12.5625 3.125 C-14.2012207 3.25455078 -14.2012207 3.25455078 -15.87304688 3.38671875 C-18.58149081 3.59960954 -21.29031607 3.80363237 -24 4 C-20.63141581 1.75427721 -17.57914811 1.0802401 -13.6875 0.3125 C-13.03587891 0.17005859 -12.38425781 0.02761719 -11.71289062 -0.11914062 C-7.51803216 -0.96315119 -4.16348447 -0.96179719 0 0 Z " fill="#4874F5" transform="translate(397,244)"/>
<path d="M0 0 C0.33 0 0.66 0 1 0 C1.86066481 6.0246537 2.65341411 12.04030587 1 18 C-1.0625 20.0625 -1.0625 20.0625 -3 21 C-2.690625 20.13375 -2.38125 19.2675 -2.0625 18.375 C-0.32696438 12.42986735 -0.32405969 6.14860618 0 0 Z " fill="#6B59F3" transform="translate(594,598)"/>
<path d="M0 0 C1.33333333 1.33333333 2.66666667 2.66666667 4 4 C5.0828125 4.99 5.0828125 4.99 6.1875 6 C8.13774277 8.15199203 8.57306357 9.18221957 9 12 C9.185625 12.9075 9.37125 13.815 9.5625 14.75 C9.706875 15.4925 9.85125 16.235 10 17 C0 5.46153846 0 5.46153846 0 0 Z " fill="#497CF5" transform="translate(336,216)"/>
<path d="M0 0 C2.04136395 -0.05451714 4.08315856 -0.09302485 6.125 -0.125 C7.83042969 -0.15980469 7.83042969 -0.15980469 9.5703125 -0.1953125 C13.05757767 0.00327891 15.7553862 0.7475199 19 2 C18.01 2.99 17.02 3.98 16 5 C15.67 4.34 15.34 3.68 15 3 C12.45975996 2.52425562 9.99948536 2.15992453 7.4375 1.875 C6.37112305 1.74544922 6.37112305 1.74544922 5.28320312 1.61328125 C3.52310688 1.40065217 1.76165836 1.19927303 0 1 C0 0.67 0 0.34 0 0 Z " fill="#4C75F5" transform="translate(402,220)"/>
<path d="M0 0 C5.94 0.33 11.88 0.66 18 1 C18 1.33 18 1.66 18 2 C16.22932584 2.16834933 14.45845388 2.33461909 12.6875 2.5 C11.70136719 2.5928125 10.71523437 2.685625 9.69921875 2.78125 C7 3 7 3 4 3 C4 2.34 4 1.68 4 1 C2.68 0.67 1.36 0.34 0 0 Z " fill="#4F9BF7" transform="translate(222,141)"/>
<path d="M0 0 C0.33 0.66 0.66 1.32 1 2 C3.02463255 2.65213292 3.02463255 2.65213292 5 3 C4.360625 3.268125 3.72125 3.53625 3.0625 3.8125 C0.66868314 4.88667752 0.66868314 4.88667752 0 8 C-0.33 8 -0.66 8 -1 8 C-1.04241723 5.66705225 -1.04092937 3.33297433 -1 1 C-0.67 0.67 -0.34 0.34 0 0 Z " fill="#669AFC" transform="translate(322,475)"/>
<path d="M0 0 C1.32 0.33 2.64 0.66 4 1 C3.34 1 2.68 1 2 1 C2 1.928125 2 2.85625 2 3.8125 C2 5.875 2 7.9375 2 10 C1.01 10.495 1.01 10.495 0 11 C0 7.37 0 3.74 0 0 Z " fill="#669CFB" transform="translate(321,464)"/>
<path d="M0 0 C0.33 0.66 0.66 1.32 1 2 C-0.24372189 2.98712878 -1.49527218 3.96439905 -2.75 4.9375 C-3.44609375 5.48277344 -4.1421875 6.02804688 -4.859375 6.58984375 C-6.96092128 7.97425654 -8.54321799 8.56286987 -11 9 C-7.56638098 5.36440339 -4.2026393 2.63886654 0 0 Z " fill="#B9EBFD" transform="translate(171,187)"/>
<path d="M0 0 C0.598125 0.350625 1.19625 0.70125 1.8125 1.0625 C1.4825 2.0525 1.1525 3.0425 0.8125 4.0625 C-1.25 4.75 -1.25 4.75 -3.1875 5.0625 C-3.1875 4.0725 -3.1875 3.0825 -3.1875 2.0625 C-3.8475 1.4025 -4.5075 0.7425 -5.1875 0.0625 C-2.1875 -0.9375 -2.1875 -0.9375 0 0 Z " fill="#53A0F8" transform="translate(193.1875,147.9375)"/>
<path d="M0 0 C0.66 0.66 1.32 1.32 2 2 C1.34 2 0.68 2 0 2 C0 1.34 0 0.68 0 0 Z M-2 1 C-1.34 1.66 -0.68 2.32 0 3 C-0.99 3.495 -0.99 3.495 -2 4 C-3.04808041 5.97522846 -4.0520411 7.97481509 -5 10 C-5.33 10 -5.66 10 -6 10 C-6.25 7.1875 -6.25 7.1875 -6 4 C-4 2.125 -4 2.125 -2 1 Z " fill="#5575F6" transform="translate(301,589)"/>
<path d="M0 0 C0.33 0 0.66 0 1 0 C1 3.96 1 7.92 1 12 C0.01 12 -0.98 12 -2 12 C-1 3.42857143 -1 3.42857143 0 0 Z " fill="#7F79FA" transform="translate(593,477)"/>
<path d="M0 0 C0 3 0 3 -1.3125 4.60546875 C-1.869375 5.12753906 -2.42625 5.64960937 -3 6.1875 C-3.556875 6.71730469 -4.11375 7.24710938 -4.6875 7.79296875 C-5.120625 8.19128906 -5.55375 8.58960938 -6 9 C-6.66 8.67 -7.32 8.34 -8 8 C-3.375 2.25 -3.375 2.25 0 0 Z " fill="#5C41F3" transform="translate(609,637)"/>
<path d="M0 0 C0.33 0 0.66 0 1 0 C1 2.31 1 4.62 1 7 C0.34 7 -0.32 7 -1 7 C-1 6.34 -1 5.68 -1 5 C-1.99 5.33 -2.98 5.66 -4 6 C-3.34 4.68 -2.68 3.36 -2 2 C-1.34 2 -0.68 2 0 2 C0 1.34 0 0.68 0 0 Z " fill="#7F77FA" transform="translate(593,490)"/>
<path d="M0 0 C0.66 0 1.32 0 2 0 C2 2.31 2 4.62 2 7 C0.5393715 4.35261084 0 3.10551666 0 0 Z M-2 3 C-1.34 3 -0.68 3 0 3 C-0.33 3.99 -0.66 4.98 -1 6 C-1.99 5.67 -2.98 5.34 -4 5 C-3.34 4.34 -2.68 3.68 -2 3 Z " fill="#7E71F9" transform="translate(592,583)"/>
</svg>
